<svg width="26" height="27" viewBox="0 0 26 27" fill="none" xmlns="http://www.w3.org/2000/svg">
<path d="M1 2.70455C1 1.76364 1.72085 1 2.60905 1H9.04524C9.93343 1 10.6543 1.76364 10.6543 2.70455V9.52273C10.6543 10.4636 9.93343 11.2273 9.04524 11.2273H2.60905C2.1823 11.2273 1.77303 11.0477 1.47128 10.728C1.16952 10.4084 1 9.9748 1 9.52273V2.70455ZM1 17.4773C1 16.5364 1.72085 15.7727 2.60905 15.7727H9.04524C9.93343 15.7727 10.6543 16.5364 10.6543 17.4773V24.2955C10.6543 25.2364 9.93343 26 9.04524 26H2.60905C2.1823 26 1.77303 25.8204 1.47128 25.5008C1.16952 25.1811 1 24.7475 1 24.2955V17.4773ZM14.9451 2.70455C14.9451 1.76364 15.6659 1 16.5541 1H22.9903C23.8785 1 24.5994 1.76364 24.5994 2.70455V9.52273C24.5994 10.4636 23.8785 11.2273 22.9903 11.2273H16.5541C16.1274 11.2273 15.7181 11.0477 15.4164 10.728C15.1146 10.4084 14.9451 9.9748 14.9451 9.52273V2.70455Z" fill="#0778B9" stroke="#0778B9" stroke-width="1.5" stroke-linecap="round" stroke-linejoin="round"/>
<path d="M15.7495 17H16.6236V17.8889H15.7495V17ZM15.7495 24.1111H16.6236V25H15.7495V24.1111ZM22.7419 17H23.616V17.8889H22.7419V17ZM22.7419 24.1111H23.616V25H22.7419V24.1111ZM19.2457 20.5556H20.1198V21.4444H19.2457V20.5556Z" fill="#0778B9" stroke="#0778B9" stroke-width="2.5" stroke-linecap="round" stroke-linejoin="round"/>
</svg>
