<svg width="70" height="70" viewBox="0 0 70 70" fill="none" xmlns="http://www.w3.org/2000/svg">
<rect width="70" height="70" rx="10" fill="#DBDBDB"/>
<path d="M34.7416 32.1367C31.5877 32.1367 29.0252 29.5742 29.0252 26.4204C29.0252 23.2665 31.5877 20.704 34.7416 20.704C37.8954 20.704 40.4579 23.2665 40.4579 26.4204C40.4579 29.5742 37.8954 32.1367 34.7416 32.1367Z" fill="#8D93A1"/>
<path d="M34.7416 21.408C37.5012 21.408 39.754 23.6607 39.754 26.4204C39.754 29.18 37.5012 31.4328 34.7416 31.4328C31.9819 31.4328 29.7292 29.18 29.7292 26.4204C29.7292 23.6607 31.9819 21.408 34.7416 21.408ZM34.7416 20C31.1935 20 28.3212 22.8723 28.3212 26.4204C28.3212 29.9685 31.1935 32.8407 34.7416 32.8407C38.2897 32.8407 41.1619 29.9685 41.1619 26.4204C41.1619 22.8723 38.2897 20 34.7416 20Z" fill="white"/>
<path d="M20 50.3417C20 42.2036 26.6034 35.6002 34.7415 35.6002C42.8796 35.6002 49.483 42.2036 49.483 50.3417" fill="#8D93A1"/>
<g filter="url(#filter0_d_11_548)">
<path d="M54.7302 43H36.408C35.1544 43 34.1382 44.0158 34.1382 45.2689V54.5223C34.1382 55.7754 35.1544 56.7913 36.408 56.7913H54.7302C55.9838 56.7913 57 55.7754 57 54.5223V45.2689C57 44.0158 55.9838 43 54.7302 43Z" fill="#8D93A1"/>
<path d="M39.6485 46.7725H48.7276" stroke="white" stroke-width="1.40798" stroke-miterlimit="10" stroke-linecap="round"/>
<path d="M39.8263 49.5609H46.4442" stroke="white" stroke-width="1.40798" stroke-miterlimit="10" stroke-linecap="round"/>
<path d="M39.6485 52.2946H52.351" stroke="white" stroke-width="1.40798" stroke-miterlimit="10" stroke-linecap="round"/>
</g>
<defs>
<filter id="filter0_d_11_548" x="33.1382" y="42" width="23.8618" height="14.7913" filterUnits="userSpaceOnUse" color-interpolation-filters="sRGB">
<feFlood flood-opacity="0" result="BackgroundImageFix"/>
<feColorMatrix in="SourceAlpha" type="matrix" values="0 0 0 0 0 0 0 0 0 0 0 0 0 0 0 0 0 0 127 0" result="hardAlpha"/>
<feOffset dx="-1" dy="-1"/>
<feComposite in2="hardAlpha" operator="out"/>
<feColorMatrix type="matrix" values="0 0 0 0 0 0 0 0 0 0 0 0 0 0 0 0 0 0 0.25 0"/>
<feBlend mode="normal" in2="BackgroundImageFix" result="effect1_dropShadow_11_548"/>
<feBlend mode="normal" in="SourceGraphic" in2="effect1_dropShadow_11_548" result="shape"/>
</filter>
</defs>
</svg>
