<svg width="70" height="70" viewBox="0 0 70 70" fill="none" xmlns="http://www.w3.org/2000/svg">
<path d="M0 10C0 4.47715 4.47715 0 10 0H60C65.5228 0 70 4.47715 70 10V60C70 65.5228 65.5228 70 60 70H10C4.47715 70 0 65.5228 0 60V10Z" fill="#E7EDFA"/>
<path d="M35.09 32.0401C32.28 32.0401 29.99 29.7501 29.99 26.9401C29.99 24.1301 32.28 21.8401 35.09 21.8401C37.9 21.8401 40.19 24.1301 40.19 26.9401C40.19 29.7501 37.9 32.0401 35.09 32.0401Z" fill="#3763BA"/>
<path d="M35.09 22.3301C37.63 22.3301 39.69 24.3901 39.69 26.9301C39.69 29.4701 37.63 31.5301 35.09 31.5301C32.55 31.5301 30.49 29.4701 30.49 26.9301C30.49 24.3901 32.55 22.3301 35.09 22.3301ZM35.09 21.3301C32 21.3301 29.49 23.8401 29.49 26.9301C29.49 30.0201 32 32.5301 35.09 32.5301C38.18 32.5301 40.69 30.0201 40.69 26.9301C40.69 23.8401 38.18 21.3301 35.09 21.3301Z" fill="white"/>
<path d="M22.23 48.12C22.23 41.01 27.99 35.25 35.1 35.25C42.21 35.25 47.97 41.01 47.97 48.12" fill="#3763BA"/>
<g filter="url(#filter0_d_11_603)">
<path d="M43.9631 40.5083C43.9805 40.5083 43.9979 40.5253 43.9979 40.5253C44.8677 41.0016 45.233 41.495 45.233 42.1584V50.6985C45.233 48.9292 44.2066 48.0616 43.215 47.0239C41.2318 44.9484 37.335 40.7464 36.4478 39.7597L35.056 38.3307C34.9168 38.1776 35.056 37.9564 35.2648 38.0075L43.9631 40.5083Z" fill="#EDA207"/>
<path d="M43.9711 53.6367C43.9884 53.6367 44.0057 53.6197 44.0057 53.6197C44.87 53.1767 45.2331 52.7338 45.2331 52.1206V44.3015L36.7969 56.6349C36.6586 56.8393 36.8833 57.0778 37.0908 56.9756L43.9711 53.6367Z" fill="#3763BA"/>
<path d="M49.1223 40.5083C49.105 40.5083 49.0878 40.5253 49.0878 40.5253C48.2263 41.0016 47.8644 41.495 47.8644 42.1584V50.6985C47.8644 48.9292 48.881 48.0616 49.8632 47.0239C51.8275 44.9484 55.6873 40.7464 56.566 39.7597L57.9445 38.3307C58.0824 38.1776 57.9445 37.9564 57.7377 38.0075L49.1223 40.5083Z" fill="#EDA207"/>
<path d="M49.1264 53.6367C49.1091 53.6367 49.0918 53.6197 49.0918 53.6197C48.2274 53.1767 47.8644 52.7338 47.8644 52.1206V44.3015L56.3006 56.6349C56.4389 56.8393 56.2141 57.0778 56.0067 56.9756L49.1264 53.6367Z" fill="#3763BA"/>
</g>
<defs>
<filter id="filter0_d_11_603" x="34" y="37" width="24" height="20" filterUnits="userSpaceOnUse" color-interpolation-filters="sRGB">
<feFlood flood-opacity="0" result="BackgroundImageFix"/>
<feColorMatrix in="SourceAlpha" type="matrix" values="0 0 0 0 0 0 0 0 0 0 0 0 0 0 0 0 0 0 127 0" result="hardAlpha"/>
<feOffset dx="-1" dy="-1"/>
<feComposite in2="hardAlpha" operator="out"/>
<feColorMatrix type="matrix" values="0 0 0 0 0 0 0 0 0 0 0 0 0 0 0 0 0 0 0.25 0"/>
<feBlend mode="normal" in2="BackgroundImageFix" result="effect1_dropShadow_11_603"/>
<feBlend mode="normal" in="SourceGraphic" in2="effect1_dropShadow_11_603" result="shape"/>
</filter>
</defs>
</svg>
