<svg width="70" height="70" viewBox="0 0 70 70" fill="none" xmlns="http://www.w3.org/2000/svg">
<path d="M0 10C0 4.47715 4.47715 0 10 0H60C65.5229 0 70 4.47715 70 10V60C70 65.5229 65.5229 70 60 70H10C4.47715 70 0 65.5229 0 60V10Z" fill="#E7EDFA"/>
<path d="M47.6977 44.2617L40.3084 36.8725C39.5391 36.1032 38.2917 36.1032 37.5224 36.8725C36.7531 37.6418 36.7531 38.8892 37.5224 39.6585L44.9117 47.0477C45.681 47.8171 46.9283 47.8171 47.6977 47.0477C48.467 46.2784 48.467 45.0311 47.6977 44.2617Z" fill="#EDA207" stroke="#8D93A1" stroke-linecap="round" stroke-linejoin="round"/>
<path d="M32.62 44.15C38.9547 44.15 44.09 39.0147 44.09 32.68C44.09 26.3453 38.9547 21.21 32.62 21.21C26.2853 21.21 21.15 26.3453 21.15 32.68C21.15 39.0147 26.2853 44.15 32.62 44.15Z" fill="#3763BA" stroke="#8D93A1" stroke-linecap="round" stroke-linejoin="round"/>
<path d="M31.87 23.11C35.33 23.11 38.03 24.53 40.38 27.52" stroke="white" stroke-linecap="round" stroke-linejoin="round"/>
</svg>
